<?xml version="1.0" standalone="no"?>
<!DOCTYPE svg PUBLIC "-//W3C//DTD SVG 20010904//EN"
 "http://www.w3.org/TR/2001/REC-SVG-20010904/DTD/svg10.dtd">
<svg version="1.0" xmlns="http://www.w3.org/2000/svg"
 width="298.000000pt" height="298.000000pt" viewBox="0 0 298.000000 298.000000"
 preserveAspectRatio="xMidYMid meet">
<metadata>
Created by potrace 1.11, written by Peter Selinger 2001-2013
</metadata>
<g transform="translate(0.000000,298.000000) scale(0.100000,-0.100000)"
fill="#000000" stroke="none">
<path d="M2696 2934 c-27 -25 -70 -54 -95 -65 -25 -12 -59 -27 -75 -35 -49
-24 -276 -76 -351 -80 -133 -9 -173 -15 -193 -32 -11 -10 -69 -101 -129 -202
-176 -296 -322 -547 -334 -574 -21 -45 -37 -39 -81 32 -24 37 -50 79 -58 94
-8 15 -45 78 -82 139 -38 61 -68 114 -68 118 0 4 -13 25 -30 47 -16 21 -30 44
-30 51 0 7 -26 54 -58 105 -32 51 -64 105 -71 120 -8 15 -26 42 -41 60 l-27
32 -354 1 c-279 1 -360 -1 -381 -12 l-28 -14 0 -1349 c0 -940 3 -1350 11
-1350 5 0 44 22 86 50 42 27 79 50 84 50 4 0 9 3 11 8 2 4 96 69 209 144 117
78 208 145 211 155 3 11 5 306 4 657 -1 351 2 640 6 642 3 2 25 -28 48 -68 22
-40 49 -86 59 -103 200 -332 316 -522 325 -532 8 -8 70 -12 206 -14 107 -1
200 -1 207 0 12 1 35 35 120 171 57 93 225 367 257 420 44 73 50 83 64 98 6 7
12 18 12 23 0 5 4 9 9 9 5 0 8 -250 8 -565 0 -311 2 -568 6 -571 7 -7 594 -11
600 -4 3 3 6 19 8 35 2 17 8 36 14 44 6 9 6 13 0 9 -7 -4 -9 376 -8 1134 1
628 -1 1147 -4 1154 -8 20 -13 18 -67 -32z"/>
</g>
</svg>
